<svg width="18" height="12" viewBox="0 0 18 12" fill="none" xmlns="http://www.w3.org/2000/svg">
<path d="M17.9046 10.1381C17.8828 10.0911 17.8625 10.0521 17.8436 10.0209C17.5313 9.45844 16.9345 8.76806 16.0536 7.94956L16.0349 7.93081L16.0256 7.92162L16.0162 7.9122H16.0068C15.6069 7.53107 15.3538 7.2748 15.2477 7.1436C15.0537 6.89367 15.0103 6.64068 15.1163 6.38435C15.1912 6.19068 15.4726 5.78168 15.9598 5.15678C16.216 4.82561 16.419 4.56018 16.5689 4.36021C17.6499 2.92312 18.1185 2.0048 17.9747 1.60489L17.9189 1.51144C17.8814 1.45517 17.7845 1.4037 17.6285 1.35676C17.4721 1.30992 17.2723 1.30218 17.0285 1.33339L14.3295 1.35204C14.2858 1.33654 14.2234 1.33799 14.142 1.35676C14.0608 1.37554 14.0201 1.38496 14.0201 1.38496L13.9732 1.40843L13.9359 1.43663C13.9046 1.45527 13.8703 1.48807 13.8327 1.53494C13.7954 1.58165 13.7642 1.63647 13.7392 1.69893C13.4454 2.45493 13.1113 3.15782 12.7363 3.80756C12.5051 4.195 12.2928 4.53077 12.0989 4.81507C11.9053 5.09927 11.7428 5.30866 11.6117 5.44289C11.4804 5.57724 11.3619 5.68488 11.2555 5.76618C11.1493 5.84752 11.0682 5.88189 11.012 5.86932C10.9557 5.85675 10.9027 5.84427 10.8525 5.8318C10.7651 5.77554 10.6948 5.69902 10.6418 5.60219C10.5885 5.50535 10.5527 5.38347 10.5339 5.23665C10.5153 5.08972 10.5043 4.96334 10.5011 4.85709C10.4982 4.75096 10.4995 4.60085 10.5059 4.40718C10.5124 4.21342 10.5153 4.08231 10.5153 4.01358C10.5153 3.77612 10.5199 3.51841 10.5292 3.24038C10.5387 2.96235 10.5463 2.74206 10.5527 2.57977C10.5591 2.41732 10.562 2.24544 10.562 2.06425C10.562 1.88305 10.551 1.74095 10.5292 1.63781C10.5077 1.53481 10.4746 1.43482 10.4311 1.33789C10.3872 1.24105 10.3231 1.16615 10.2389 1.11297C10.1546 1.05986 10.0498 1.01771 9.92498 0.986396C9.59381 0.911456 9.1721 0.870917 8.65967 0.864615C7.49762 0.852141 6.75094 0.92718 6.4198 1.08963C6.2886 1.15827 6.16987 1.25205 6.06371 1.37068C5.95122 1.50819 5.93553 1.58323 6.01674 1.59557C6.39167 1.65173 6.6571 1.78609 6.81331 1.9985L6.86961 2.11106C6.9134 2.19227 6.95712 2.33604 7.00088 2.54218C7.04457 2.74833 7.07276 2.97636 7.08517 3.22616C7.11635 3.68234 7.11635 4.07283 7.08517 4.39767C7.05389 4.72264 7.02435 4.97562 6.99615 5.15682C6.96795 5.33801 6.9258 5.48484 6.86961 5.59726C6.81331 5.70972 6.77586 5.77846 6.75708 5.80341C6.73834 5.82835 6.72271 5.84408 6.71031 5.85025C6.6291 5.88137 6.54464 5.89722 6.45722 5.89722C6.36968 5.89722 6.26352 5.85343 6.13859 5.76592C6.01369 5.67841 5.88406 5.5582 5.74971 5.40511C5.61535 5.25198 5.46383 5.03799 5.29508 4.76311C5.12645 4.48823 4.9515 4.16336 4.7703 3.78849L4.62039 3.51663C4.52667 3.34174 4.39865 3.08708 4.2362 2.75289C4.07365 2.41856 3.92997 2.09517 3.80507 1.78277C3.75515 1.65157 3.68014 1.55168 3.58019 1.48294L3.53328 1.45475C3.5021 1.4298 3.45204 1.40331 3.38337 1.37508C3.3146 1.34688 3.24284 1.32666 3.1678 1.31422L0.599915 1.33287C0.337509 1.33287 0.159465 1.39231 0.0657162 1.51104L0.0281969 1.56721C0.00945368 1.59849 0 1.64845 0 1.71722C0 1.78595 0.0187432 1.87032 0.0562625 1.9702C0.431127 2.85123 0.838784 3.70092 1.27923 4.51938C1.71968 5.33785 2.10243 5.99714 2.42723 6.49668C2.7521 6.99657 3.08325 7.46837 3.42066 7.91184C3.75807 8.35547 3.98141 8.63977 4.09069 8.76467C4.20009 8.8898 4.28603 8.98336 4.3485 9.04582L4.58284 9.27071C4.73278 9.42069 4.95297 9.60031 5.24351 9.80957C5.53411 10.019 5.85583 10.2251 6.20883 10.4283C6.5619 10.6312 6.97265 10.7968 7.44129 10.9248C7.90987 11.053 8.36595 11.1045 8.80958 11.0796H9.88737C10.1059 11.0608 10.2716 10.992 10.3841 10.8734L10.4214 10.8264C10.4465 10.7891 10.4699 10.7312 10.4916 10.6532C10.5135 10.5752 10.5244 10.4891 10.5244 10.3955C10.518 10.1269 10.5385 9.88484 10.5852 9.66931C10.6319 9.45384 10.6852 9.29139 10.7447 9.18198C10.8042 9.07267 10.8714 8.98043 10.9461 8.90566C11.0211 8.83072 11.0744 8.78532 11.1057 8.7697C11.1369 8.75397 11.1617 8.7433 11.1805 8.7369C11.3304 8.68694 11.5069 8.73533 11.7101 8.88229C11.9132 9.02911 12.1037 9.21041 12.2819 9.42587C12.4599 9.64153 12.6739 9.88349 12.9238 10.1521C13.1738 10.4208 13.3924 10.6205 13.5798 10.7519L13.7671 10.8644C13.8923 10.9394 14.0547 11.0082 14.2547 11.0707C14.4543 11.1331 14.6292 11.1487 14.7794 11.1175L17.1785 11.0801C17.4158 11.0801 17.6004 11.0408 17.7314 10.9628C17.8626 10.8847 17.9406 10.7987 17.9657 10.7051C17.9908 10.6114 17.9922 10.5051 17.9705 10.3863C17.9483 10.2678 17.9264 10.1849 17.9046 10.1381Z" fill="#4E76C6"/>
</svg>
