<svg width="18" height="13" viewBox="0 0 18 13" fill="none" xmlns="http://www.w3.org/2000/svg">
<path d="M17.082 2.78239C16.8875 2.05945 16.3175 1.48957 15.5947 1.29491C14.2742 0.933594 8.99198 0.933594 8.99198 0.933594C8.99198 0.933594 3.71 0.933594 2.38947 1.28121C1.68055 1.47567 1.09666 2.05955 0.902199 2.78239C0.554688 4.10281 0.554688 6.84118 0.554688 6.84118C0.554688 6.84118 0.554688 9.59336 0.902199 10.9C1.09686 11.6228 1.66664 12.1927 2.38958 12.3874C3.7239 12.7488 8.99219 12.7488 8.99219 12.7488C8.99219 12.7488 14.2742 12.7488 15.5947 12.4012C16.3176 12.2066 16.8875 11.6367 17.0822 10.9139C17.4296 9.59336 17.4296 6.85509 17.4296 6.85509C17.4296 6.85509 17.4435 4.10281 17.082 2.78239ZM7.31025 9.37099V4.31137L11.7027 6.84118L7.31025 9.37099Z" fill="#4E76C6"/>
</svg>
