<svg width="15" height="18" viewBox="0 0 15 18" fill="none" xmlns="http://www.w3.org/2000/svg">
<path d="M14.5 4.0013H11C11 2.15964 9.43375 0.667969 7.5 0.667969C5.56625 0.667969 4 2.15964 4 4.0013H2.25C1.2875 4.0013 0.5 4.0013 0.5 4.0013V15.668C0.5 16.5846 0.5 17.3346 0.5 17.3346H12.75C13.7125 17.3346 14.5 17.3346 14.5 17.3346V5.66797C14.5 4.7513 14.5 4.0013 14.5 4.0013ZM7.5 2.33464C8.4625 2.33464 9.25 3.08464 9.25 4.0013H5.75C5.75 3.08464 6.5375 2.33464 7.5 2.33464ZM12.75 15.668H2.25V5.66797H4V7.33464H4.875H5.75V5.66797H9.25V7.33464H10.125H11V5.66797H12.75V15.668Z" fill="white"/>
</svg>
